<svg width="22" height="30" viewBox="0 0 22 30" fill="none" xmlns="http://www.w3.org/2000/svg">
<path d="M11 29C10.6667 29 10.381 28.9067 10.1429 28.72C9.90476 28.5333 9.72619 28.2883 9.60714 27.985C9.15476 26.6783 8.58333 25.4533 7.89286 24.31C7.22619 23.1667 6.28571 21.825 5.07143 20.285C3.85714 18.745 2.86905 17.275 2.10714 15.875C1.36905 14.475 1 12.7833 1 10.8C1 8.07 1.96429 5.76 3.89286 3.87C5.84524 1.95667 8.21429 1 11 1C13.7857 1 16.1429 1.95667 18.0714 3.87C20.0238 5.76 21 8.07 21 10.8C21 12.9233 20.5833 14.6967 19.75 16.12C18.9405 17.52 18 18.9083 16.9286 20.285C15.6429 21.965 14.6667 23.365 14 24.485C13.3571 25.5817 12.8214 26.7483 12.3929 27.985C12.2738 28.3117 12.0833 28.5683 11.8214 28.755C11.5833 28.9183 11.3095 29 11 29ZM11 14.3C12 14.3 12.8452 13.9617 13.5357 13.285C14.2262 12.6083 14.5714 11.78 14.5714 10.8C14.5714 9.82 14.2262 8.99167 13.5357 8.315C12.8452 7.63833 12 7.3 11 7.3C10 7.3 9.15476 7.63833 8.46429 8.315C7.77381 8.99167 7.42857 9.82 7.42857 10.8C7.42857 11.78 7.77381 12.6083 8.46429 13.285C9.15476 13.9617 10 14.3 11 14.3Z" stroke="white" stroke-width="2"/>
</svg>
