<svg width="170" height="134" viewBox="0 0 170 134" fill="none" xmlns="http://www.w3.org/2000/svg">
<path d="M77.7783 97.2103C77.6764 101.798 76.607 106.311 74.6432 110.438C72.6794 114.566 69.8678 118.212 66.4008 121.125C58.9522 127.727 49.3015 131.126 39.4687 130.611C26.9776 130.284 17.2317 125.575 10.2311 116.484C3.23659 107.443 -0.330217 96.1173 0.18694 84.5895C0.910496 56.9763 8.85366 36.3906 24.0164 22.8324C39.1792 9.2742 55.7617 1.98257 73.764 0.95748L72.9703 31.247C63.8922 31.9967 55.2259 35.4588 48.0469 41.2036C44.3598 43.8774 41.2892 47.3456 39.0515 51.3639C36.8138 55.3822 35.4634 59.8529 35.0955 64.4609C38.1179 63.0514 41.4193 62.3842 44.7364 62.5123C55.4655 62.7935 63.7208 66.1281 69.5022 72.5163C72.4196 75.8585 74.6545 79.7646 76.0757 84.0052C77.497 88.2458 78.0758 92.7354 77.7783 97.2103ZM169.098 99.6032C169 104.192 167.933 108.706 165.968 112.834C164.004 116.963 161.19 120.607 157.72 123.518C150.272 130.119 140.621 133.519 130.788 133.004C118.326 132.677 108.659 127.97 101.787 118.883C94.8804 109.803 91.365 98.4957 91.8717 86.9919C92.5952 59.3787 100.46 38.7909 115.465 25.2286C130.47 11.6663 147.032 4.34477 165.15 3.26403L164.356 33.5535C155.297 34.342 146.66 37.8354 139.517 43.6004C135.803 46.2571 132.706 49.718 130.445 53.7371C128.184 57.7562 126.816 62.2348 126.437 66.8543C129.451 65.4441 132.746 64.7766 136.056 64.9052C146.771 65.186 155.026 68.5206 160.822 74.9092C163.739 78.2504 165.973 82.1567 167.391 86.3979C168.808 90.639 169.381 95.1289 169.076 99.6026L169.098 99.6032Z" fill="#F3F5F7" fill-opacity="0.1"/>
</svg>
