<svg width="89" height="75" viewBox="0 0 89 75" fill="none" xmlns="http://www.w3.org/2000/svg">
<path d="M25.7817 34.8592C33.787 36.7371 37.7897 41.6667 37.7897 49.6479V59.507C37.7897 64.6714 36.1415 68.5446 32.8452 71.1268C29.7844 73.7089 25.1931 75 19.0714 75C6.35714 75 0 69.8357 0 59.507V48.9436C0 42.3709 0.824074 36.5023 2.47222 31.338L13.0675 0H33.9048L25.7817 34.8592ZM76.9921 34.8592C84.9974 36.7371 89 41.6667 89 49.6479V59.507C89 64.6714 87.3519 68.5446 84.0556 71.1268C80.9947 73.7089 76.4034 75 70.2817 75C57.5675 75 51.2103 69.8357 51.2103 59.507V48.9436C51.2103 42.3709 52.0344 36.5023 53.6825 31.338L64.2778 0H85.1151L76.9921 34.8592Z" fill="#CF2129"/>
</svg>
