<svg width="74" height="74" viewBox="0 0 74 74" fill="none" xmlns="http://www.w3.org/2000/svg">
<path d="M9.77778 72H64.2222C68.5178 72 72 68.5178 72 64.2222V9.77778C72 5.48223 68.5178 2 64.2222 2H9.77778C5.48223 2 2 5.48223 2 9.77778V64.2222C2 68.5178 5.48223 72 9.77778 72ZM9.77778 72L52.5556 29.2222L72 48.6667M29.2222 23.3889C29.2222 26.6105 26.6105 29.2222 23.3889 29.2222C20.1672 29.2222 17.5556 26.6105 17.5556 23.3889C17.5556 20.1672 20.1672 17.5556 23.3889 17.5556C26.6105 17.5556 29.2222 20.1672 29.2222 23.3889Z" stroke="#1E1E1E" stroke-width="4" stroke-linecap="round" stroke-linejoin="round"/>
</svg>
