<svg width="33" height="15" viewBox="0 0 33 15" fill="none" xmlns="http://www.w3.org/2000/svg">
<g clip-path="url(#clip0_36_233)">
<path d="M26.7716 5.80073C28.113 5.50571 29.3612 5.65834 30.4621 6.43794C31.9058 7.46049 32.5764 8.86351 32.2503 10.5816C31.9049 12.4024 30.725 13.5544 28.879 14.0315C28.5153 14.1254 28.1244 14.1552 27.746 14.1561C24.1692 14.165 20.5925 14.1614 17.0157 14.1614C16.273 14.1614 15.9147 13.8179 15.9147 13.1032C15.9147 9.37345 15.9157 5.64365 15.9129 1.91386C15.9129 1.44663 16.1047 1.11468 16.5359 0.889079C17.5781 0.343093 18.7038 0.203815 19.8612 0.233184C23.1389 0.317729 25.917 2.51947 26.7299 5.66412C26.7409 5.70595 26.7551 5.74733 26.7716 5.80073Z" fill="white"/>
<path d="M14.9446 8.74526C14.9184 10.425 14.812 12.095 14.5748 13.757C14.54 14.0027 14.4166 14.1308 14.206 14.1317C13.9936 14.1326 13.8711 14.0067 13.8372 13.7601C13.5757 11.8459 13.4729 9.92133 13.5422 7.99325C13.6037 6.2752 13.7303 4.55981 13.828 2.84309C13.834 2.73941 13.8363 2.63573 13.8431 2.53205C13.8583 2.31312 13.9964 2.16806 14.1927 2.16183C14.3936 2.15516 14.55 2.30734 14.5684 2.53161C14.6138 3.09317 14.667 3.65428 14.6996 4.21629C14.7863 5.72565 14.8634 7.23546 14.9446 8.74526Z" fill="white"/>
<path d="M10.4866 8.93952C10.4356 9.91268 10.3792 11.1711 10.2998 12.4277C10.2687 12.9221 10.1893 13.4142 10.1241 13.9059C10.0989 14.0955 9.96038 14.1925 9.77414 14.1956C9.57046 14.1991 9.44385 14.0808 9.41311 13.8894C9.36953 13.6189 9.32595 13.3466 9.3099 13.0738C9.23008 11.7131 9.08695 10.351 9.10392 8.99069C9.12457 7.31046 9.281 5.632 9.37962 3.95266C9.38834 3.80493 9.39751 3.65631 9.4232 3.5108C9.45807 3.31546 9.58835 3.21044 9.79386 3.22379C9.9957 3.23669 10.1127 3.34794 10.1306 3.54951C10.2026 4.3616 10.2898 5.17279 10.3439 5.98576C10.4031 6.87304 10.4315 7.76255 10.487 8.93907L10.4866 8.93952Z" fill="white"/>
<path d="M11.3118 8.84662C11.3003 7.20599 11.4081 5.57204 11.5939 3.94209C11.6214 3.70002 11.7655 3.54561 11.9728 3.54205C12.1765 3.53849 12.3384 3.68979 12.3637 3.93096C12.4449 4.69766 12.5508 5.46302 12.5889 6.23194C12.6449 7.3644 12.7027 8.50132 12.6632 9.63289C12.6155 11.0088 12.471 12.382 12.3614 13.756C12.3412 14.0097 12.1907 14.1427 11.9733 14.1423C11.7554 14.1423 11.6205 14.0012 11.5916 13.7512C11.4049 12.1212 11.3003 10.4868 11.3113 8.84662H11.3118Z" fill="white"/>
<path d="M8.26856 9.1787C8.2447 10.7237 8.1291 12.2597 7.91808 13.7891C7.88781 14.0085 7.74927 14.1451 7.55522 14.1553C7.35521 14.1656 7.20337 14.0378 7.17493 13.7931C7.09603 13.1159 7.01621 12.4386 6.96346 11.7591C6.84923 10.2938 6.82492 8.82584 6.9185 7.35919C6.97584 6.45767 7.07401 5.55837 7.15979 4.65863C7.16943 4.55851 7.1864 4.4268 7.25383 4.37162C7.35338 4.29063 7.50384 4.22033 7.62816 4.227C7.79835 4.2359 7.90249 4.37206 7.92221 4.54783C7.99698 5.21797 8.09378 5.88632 8.14195 6.55823C8.20433 7.43039 8.22865 8.30521 8.26901 9.1787H8.26856Z" fill="white"/>
<path d="M3.79544 9.7227C3.80141 10.9936 3.64406 12.2515 3.46791 13.5072C3.43901 13.7119 3.30414 13.8218 3.0922 13.8192C2.87889 13.8165 2.74907 13.7221 2.72613 13.5041C2.64127 12.6934 2.53392 11.8848 2.47062 11.0723C2.37887 9.88734 2.40043 8.70148 2.55594 7.52051C2.59952 7.19034 2.65732 6.8615 2.70962 6.53266C2.7431 6.32219 2.86972 6.1967 3.08853 6.18068C3.28625 6.16644 3.42754 6.30572 3.47754 6.54245C3.69773 7.5917 3.8037 8.65119 3.7959 9.72225L3.79544 9.7227Z" fill="white"/>
<path d="M4.62851 9.90902C4.63952 8.89225 4.72301 7.88349 4.93953 6.88674C4.9822 6.68962 5.08358 6.55924 5.30239 6.55434C5.51983 6.54945 5.63452 6.66915 5.68268 6.86716C5.8859 7.69838 5.97994 8.5425 6.00976 9.39507C6.05105 10.5756 5.93315 11.7463 5.79232 12.9162C5.75883 13.1952 5.71709 13.4737 5.68039 13.7527C5.64461 14.0251 5.52901 14.1563 5.32028 14.1599C5.11385 14.163 4.97302 14.0242 4.94871 13.7594C4.84595 12.639 4.7487 11.5181 4.65191 10.3972C4.63769 10.2352 4.63585 10.0719 4.62805 9.90902H4.62851Z" fill="white"/>
<path d="M1.58388 9.76712C1.5715 10.6522 1.40865 11.5181 1.2146 12.3787C1.17423 12.558 1.04166 12.6635 0.850826 12.6555C0.633844 12.6466 0.530629 12.502 0.498518 12.3084C0.420074 11.834 0.329245 11.3606 0.273279 10.8836C0.148503 9.81563 0.198964 8.75614 0.479251 7.71089C0.532923 7.51154 0.643937 7.38828 0.850826 7.38249C1.05863 7.37715 1.17561 7.49774 1.23892 7.69264C1.45865 8.36812 1.57012 9.05917 1.58434 9.76668L1.58388 9.76712Z" fill="white"/>
</g>
<defs>
<clipPath id="clip0_36_233">
<rect width="32.1229" height="13.9665" fill="white" transform="translate(0.208618 0.229492)"/>
</clipPath>
</defs>
</svg>
