<svg width="25" height="25" viewBox="0 0 25 25" fill="none" xmlns="http://www.w3.org/2000/svg">
<path d="M18.6875 6.54167H18.6988M6.875 1.66667H18.125C21.2316 1.66667 23.75 4.0918 23.75 7.08334V17.9167C23.75 20.9082 21.2316 23.3333 18.125 23.3333H6.875C3.7684 23.3333 1.25 20.9082 1.25 17.9167V7.08334C1.25 4.0918 3.7684 1.66667 6.875 1.66667ZM17 11.8175C17.1388 12.7191 16.9789 13.6399 16.543 14.4489C16.107 15.258 15.4173 15.914 14.5718 16.3238C13.7264 16.7336 12.7683 16.8762 11.8338 16.7314C10.8993 16.5866 10.036 16.1618 9.36669 15.5173C8.69741 14.8728 8.2562 14.0415 8.10583 13.1416C7.95545 12.2417 8.10357 11.3191 8.52912 10.5049C8.95466 9.69076 9.63596 9.02656 10.4761 8.60677C11.3163 8.18698 12.2725 8.03298 13.2088 8.16667C14.1638 8.30305 15.048 8.73159 15.7307 9.389C16.4134 10.0464 16.8584 10.8978 17 11.8175Z" stroke="white" stroke-width="2" stroke-linecap="round" stroke-linejoin="round"/>
</svg>
