<svg width="25" height="25" viewBox="0 0 25 25" fill="none" xmlns="http://www.w3.org/2000/svg">
<path d="M14.2502 9.94748C16.5127 8.20032 18.7351 7.57894 21.2133 8.83631C23.6147 10.0535 24.4591 12.1479 24.4627 14.7028C24.4627 17.3821 24.4371 20.0613 24.481 22.7369C24.5029 24.0198 24.0716 24.59 22.6863 24.6083C19.0275 24.6522 19.0275 24.7034 19.0275 21.0884C19.0275 19.4436 19.0713 17.7988 19.0092 16.1576C18.9507 14.5603 17.9382 13.5807 16.5091 13.6063C15.0872 13.6319 14.104 14.6407 14.0747 16.227C14.0345 18.358 14.0309 20.489 14.0747 22.6163C14.1003 23.9614 13.6507 24.601 12.1777 24.6083C8.64318 24.6266 8.64318 24.6814 8.64318 21.0665C8.64318 17.4515 8.69435 14.1253 8.61759 10.6602C8.5847 9.21645 9.13662 8.61701 10.5329 8.74859C11.8488 8.87287 13.4168 8.18935 14.2502 9.95114V9.94748Z" fill="white"/>
<path d="M6.58889 24.495H1.39856V8.8692H6.58889V24.495Z" fill="white"/>
<path d="M7.1701 3.5802C7.1701 5.36757 5.71169 6.78212 3.89873 6.75288C2.14425 6.72729 0.638328 5.17385 0.700466 3.46323C0.758948 1.82206 2.25391 0.392898 3.92432 0.381932C5.72997 0.367312 7.1701 1.78917 7.1701 3.5802Z" fill="white"/>
</svg>
