<svg width="26" height="27" viewBox="0 0 26 27" fill="none" xmlns="http://www.w3.org/2000/svg">
<path d="M0.83984 25.6936C1.11324 24.8833 1.35586 24.1602 1.60068 23.4378C1.85136 22.6993 2.09764 21.9593 2.36078 21.226C2.43481 21.0186 2.39669 20.8714 2.27429 20.6955C0.551778 18.2178 -0.189266 15.4616 0.04089 12.4637C0.457957 7.0297 4.49375 2.38186 9.84525 1.12026C16.544 -0.459298 23.2815 3.40828 25.166 10.0262C26.396 14.3465 25.479 18.2925 22.5874 21.7315C20.5446 24.1609 17.8985 25.5991 14.7658 26.0768C11.6587 26.5508 8.74871 25.9346 6.066 24.2899C5.8571 24.1616 5.68412 24.1419 5.45909 24.2151C3.95428 24.7031 2.44507 25.1807 0.840573 25.6929L0.83984 25.6936ZM5.38359 10.1427C5.44516 10.5141 5.48475 10.89 5.57124 11.2555C5.83658 12.3691 6.45155 13.3025 7.10024 14.2249C7.98275 15.4799 8.98693 16.617 10.1406 17.6287C11.8184 19.0999 13.8356 19.8655 15.9385 20.4574C17.1883 20.8091 18.3127 20.4933 19.3696 19.7922C20.3122 19.1665 20.582 18.2507 20.5475 17.1965C20.5439 17.0741 20.453 16.8939 20.3518 16.8448C19.2787 16.3217 18.1976 15.8162 17.115 15.3129C16.824 15.1773 16.6085 15.296 16.4201 15.5385C16.0536 16.0103 15.6681 16.4675 15.2935 16.9335C15.0831 17.195 14.842 17.2588 14.5187 17.1313C12.3154 16.2624 10.6222 14.7986 9.39814 12.7809C9.16065 12.3889 9.1951 12.2563 9.48756 11.9061C9.81374 11.5149 10.1179 11.1039 10.3994 10.6797C10.4822 10.5551 10.5181 10.3302 10.4646 10.1969C10.0278 9.11258 9.57698 8.03341 9.09761 6.96743C9.01918 6.79233 8.7861 6.5784 8.61678 6.57107C7.88086 6.5403 7.15008 6.59818 6.59082 7.18868C5.80579 8.01656 5.41072 8.99463 5.38433 10.1434L5.38359 10.1427Z" fill="white"/>
</svg>
