<svg width="26" height="19" viewBox="0 0 26 19" fill="none" xmlns="http://www.w3.org/2000/svg">
<g clip-path="url(#clip0_36_230)">
<path d="M12.8811 18.3795C10.1406 18.3795 7.40006 18.3985 4.66263 18.3732C1.98107 18.3479 0.773742 17.1041 0.770638 14.4172C0.767535 10.9929 0.767535 7.56541 0.770638 4.13794C0.776846 1.62825 2.01831 0.264228 4.42675 0.251569C10.1127 0.219921 15.7986 0.223086 21.4845 0.251569C23.8526 0.264228 25.1778 1.67573 25.1903 4.13477C25.2089 7.61605 25.212 11.0942 25.1903 14.5754C25.1747 16.9617 23.9178 18.3099 21.5621 18.3542C18.6695 18.4112 15.7737 18.3669 12.878 18.3669V18.3763L12.8811 18.3795Z" fill="white"/>
<path d="M11.023 6.59404L15.8682 9.09542C15.8682 9.09542 16.4584 9.79532 15.8682 10.2274C15.278 10.6595 11.023 12.7288 11.023 12.7288C11.023 12.7288 9.84558 13.0118 9.84558 12.4458V6.98355C9.84558 6.98355 10.228 6.28365 11.023 6.59404Z" fill="#CF2129"/>
</g>
<defs>
<clipPath id="clip0_36_230">
<rect width="24.4413" height="18.1564" fill="white" transform="translate(0.767334 0.229492)"/>
</clipPath>
</defs>
</svg>
